<svg width="1363" height="163" viewBox="0 0 1363 163" fill="none" xmlns="http://www.w3.org/2000/svg">
<g clip-path="url(#clip0_412_16)">
<path d="M0 15C0 6.71573 6.71573 0 15 0H37V163H15C6.71573 163 0 156.284 0 148V15Z" fill="#424242"/>
<path d="M1134 0H37V163H1134V0Z" fill="#F0F0F0"/>
<path d="M110.062 92.0469L101.742 119H92.9062L105.445 84.875H111.047L110.062 92.0469ZM116.953 119L108.609 92.0469L107.531 84.875H113.203L125.812 119H116.953ZM116.625 106.273V112.625H99.1172V106.273H116.625ZM137.062 84.875V119H128.859V84.875H137.062ZM157.898 101.234V107.352H143.812V101.234H157.898ZM178.078 107.422H169.594V101.07H178.078C179.234 101.07 180.172 100.875 180.891 100.484C181.609 100.094 182.133 99.5547 182.461 98.8672C182.805 98.1641 182.977 97.375 182.977 96.5C182.977 95.5625 182.805 94.6953 182.461 93.8984C182.133 93.1016 181.609 92.4609 180.891 91.9766C180.172 91.4766 179.234 91.2266 178.078 91.2266H172.688V119H164.461V84.875H178.078C180.812 84.875 183.164 85.375 185.133 86.375C187.117 87.375 188.641 88.75 189.703 90.5C190.766 92.2344 191.297 94.2188 191.297 96.4531C191.297 98.6562 190.766 100.578 189.703 102.219C188.641 103.859 187.117 105.141 185.133 106.062C183.164 106.969 180.812 107.422 178.078 107.422ZM194.039 106.578V106.086C194.039 104.227 194.305 102.516 194.836 100.953C195.367 99.375 196.148 98.0078 197.18 96.8516C198.211 95.6953 199.484 94.7969 201 94.1562C202.516 93.5 204.266 93.1719 206.25 93.1719C208.25 93.1719 210.008 93.5 211.523 94.1562C213.055 94.7969 214.336 95.6953 215.367 96.8516C216.398 98.0078 217.18 99.375 217.711 100.953C218.242 102.516 218.508 104.227 218.508 106.086V106.578C218.508 108.422 218.242 110.133 217.711 111.711C217.18 113.273 216.398 114.641 215.367 115.812C214.336 116.969 213.062 117.867 211.547 118.508C210.031 119.148 208.281 119.469 206.297 119.469C204.312 119.469 202.555 119.148 201.023 118.508C199.492 117.867 198.211 116.969 197.18 115.812C196.148 114.641 195.367 113.273 194.836 111.711C194.305 110.133 194.039 108.422 194.039 106.578ZM201.938 106.086V106.578C201.938 107.531 202.008 108.422 202.148 109.25C202.289 110.078 202.523 110.805 202.852 111.43C203.18 112.039 203.625 112.516 204.188 112.859C204.75 113.203 205.453 113.375 206.297 113.375C207.125 113.375 207.812 113.203 208.359 112.859C208.922 112.516 209.367 112.039 209.695 111.43C210.023 110.805 210.258 110.078 210.398 109.25C210.539 108.422 210.609 107.531 210.609 106.578V106.086C210.609 105.164 210.539 104.297 210.398 103.484C210.258 102.656 210.023 101.93 209.695 101.305C209.367 100.664 208.922 100.164 208.359 99.8047C207.797 99.4453 207.094 99.2656 206.25 99.2656C205.422 99.2656 204.727 99.4453 204.164 99.8047C203.617 100.164 203.18 100.664 202.852 101.305C202.523 101.93 202.289 102.656 202.148 103.484C202.008 104.297 201.938 105.164 201.938 106.086ZM229.734 111.453L234.422 93.6406H239.367L237.609 102.57L232.969 119H229.008L229.734 111.453ZM227.883 93.6406L230.789 111.312L231.117 119H226.312L220.312 93.6406H227.883ZM243.539 110.938L246.469 93.6406H254.039L248.086 119H243.281L243.539 110.938ZM239.93 93.6406L244.664 111.406L245.391 119H241.383L236.836 102.617L235.148 93.6406H239.93ZM269.18 119.469C267.117 119.469 265.273 119.148 263.648 118.508C262.023 117.852 260.648 116.953 259.523 115.812C258.414 114.672 257.562 113.359 256.969 111.875C256.391 110.391 256.102 108.82 256.102 107.164V106.273C256.102 104.414 256.359 102.695 256.875 101.117C257.391 99.5234 258.156 98.1328 259.172 96.9453C260.188 95.7578 261.461 94.8359 262.992 94.1797C264.523 93.5078 266.305 93.1719 268.336 93.1719C270.133 93.1719 271.742 93.4609 273.164 94.0391C274.586 94.6172 275.789 95.4453 276.773 96.5234C277.773 97.6016 278.531 98.9062 279.047 100.438C279.578 101.969 279.844 103.688 279.844 105.594V108.805H259.125V103.859H272.133V103.25C272.148 102.406 272 101.688 271.688 101.094C271.391 100.5 270.953 100.047 270.375 99.7344C269.797 99.4219 269.094 99.2656 268.266 99.2656C267.406 99.2656 266.695 99.4531 266.133 99.8281C265.586 100.203 265.156 100.719 264.844 101.375C264.547 102.016 264.336 102.758 264.211 103.602C264.086 104.445 264.023 105.336 264.023 106.273V107.164C264.023 108.102 264.148 108.953 264.398 109.719C264.664 110.484 265.039 111.141 265.523 111.688C266.023 112.219 266.617 112.633 267.305 112.93C268.008 113.227 268.805 113.375 269.695 113.375C270.773 113.375 271.836 113.172 272.883 112.766C273.93 112.359 274.828 111.688 275.578 110.75L279.164 115.016C278.648 115.75 277.914 116.461 276.961 117.148C276.023 117.836 274.898 118.398 273.586 118.836C272.273 119.258 270.805 119.469 269.18 119.469ZM291.023 99.9219V119H283.125V93.6406H290.508L291.023 99.9219ZM298.523 93.4531L298.383 100.789C298.07 100.758 297.648 100.719 297.117 100.672C296.586 100.625 296.141 100.602 295.781 100.602C294.859 100.602 294.062 100.711 293.391 100.93C292.734 101.133 292.188 101.445 291.75 101.867C291.328 102.273 291.016 102.789 290.812 103.414C290.625 104.039 290.539 104.766 290.555 105.594L289.125 104.656C289.125 102.953 289.289 101.406 289.617 100.016C289.961 98.6094 290.445 97.3984 291.07 96.3828C291.695 95.3516 292.453 94.5625 293.344 94.0156C294.234 93.4531 295.234 93.1719 296.344 93.1719C296.734 93.1719 297.117 93.1953 297.492 93.2422C297.883 93.2891 298.227 93.3594 298.523 93.4531ZM313.055 119.469C310.992 119.469 309.148 119.148 307.523 118.508C305.898 117.852 304.523 116.953 303.398 115.812C302.289 114.672 301.438 113.359 300.844 111.875C300.266 110.391 299.977 108.82 299.977 107.164V106.273C299.977 104.414 300.234 102.695 300.75 101.117C301.266 99.5234 302.031 98.1328 303.047 96.9453C304.062 95.7578 305.336 94.8359 306.867 94.1797C308.398 93.5078 310.18 93.1719 312.211 93.1719C314.008 93.1719 315.617 93.4609 317.039 94.0391C318.461 94.6172 319.664 95.4453 320.648 96.5234C321.648 97.6016 322.406 98.9062 322.922 100.438C323.453 101.969 323.719 103.688 323.719 105.594V108.805H303V103.859H316.008V103.25C316.023 102.406 315.875 101.688 315.562 101.094C315.266 100.5 314.828 100.047 314.25 99.7344C313.672 99.4219 312.969 99.2656 312.141 99.2656C311.281 99.2656 310.57 99.4531 310.008 99.8281C309.461 100.203 309.031 100.719 308.719 101.375C308.422 102.016 308.211 102.758 308.086 103.602C307.961 104.445 307.898 105.336 307.898 106.273V107.164C307.898 108.102 308.023 108.953 308.273 109.719C308.539 110.484 308.914 111.141 309.398 111.688C309.898 112.219 310.492 112.633 311.18 112.93C311.883 113.227 312.68 113.375 313.57 113.375C314.648 113.375 315.711 113.172 316.758 112.766C317.805 112.359 318.703 111.688 319.453 110.75L323.039 115.016C322.523 115.75 321.789 116.461 320.836 117.148C319.898 117.836 318.773 118.398 317.461 118.836C316.148 119.258 314.68 119.469 313.055 119.469ZM341.508 113.188V83H349.453V119H342.328L341.508 113.188ZM325.945 106.625V106.133C325.945 104.211 326.156 102.461 326.578 100.883C327 99.2891 327.625 97.9219 328.453 96.7812C329.281 95.625 330.312 94.7344 331.547 94.1094C332.781 93.4844 334.203 93.1719 335.812 93.1719C337.25 93.1719 338.508 93.5078 339.586 94.1797C340.664 94.8359 341.586 95.7578 342.352 96.9453C343.117 98.1328 343.742 99.5234 344.227 101.117C344.711 102.695 345.078 104.398 345.328 106.227V106.812C345.078 108.531 344.711 110.156 344.227 111.688C343.742 113.203 343.117 114.547 342.352 115.719C341.586 116.891 340.656 117.812 339.562 118.484C338.484 119.141 337.219 119.469 335.766 119.469C334.156 119.469 332.734 119.148 331.5 118.508C330.281 117.867 329.258 116.969 328.43 115.812C327.617 114.656 327 113.297 326.578 111.734C326.156 110.172 325.945 108.469 325.945 106.625ZM333.844 106.133V106.625C333.844 107.578 333.906 108.461 334.031 109.273C334.156 110.086 334.367 110.805 334.664 111.43C334.977 112.039 335.383 112.516 335.883 112.859C336.398 113.203 337.031 113.375 337.781 113.375C338.797 113.375 339.633 113.133 340.289 112.648C340.961 112.164 341.453 111.477 341.766 110.586C342.094 109.695 342.234 108.648 342.188 107.445V105.594C342.219 104.562 342.148 103.656 341.977 102.875C341.805 102.078 341.531 101.414 341.156 100.883C340.797 100.352 340.336 99.9531 339.773 99.6875C339.227 99.4062 338.578 99.2656 337.828 99.2656C337.094 99.2656 336.469 99.4375 335.953 99.7812C335.453 100.125 335.047 100.609 334.734 101.234C334.422 101.844 334.195 102.57 334.055 103.414C333.914 104.242 333.844 105.148 333.844 106.133ZM380.719 92.0469L372.398 119H363.562L376.102 84.875H381.703L380.719 92.0469ZM387.609 119L379.266 92.0469L378.188 84.875H383.859L396.469 119H387.609ZM387.281 106.273V112.625H369.773V106.273H387.281ZM405.445 98.5156V128.75H397.547V93.6406H404.906L405.445 98.5156ZM421.008 106.016V106.508C421.008 108.352 420.797 110.062 420.375 111.641C419.953 113.219 419.328 114.594 418.5 115.766C417.672 116.938 416.641 117.852 415.406 118.508C414.188 119.148 412.773 119.469 411.164 119.469C409.648 119.469 408.344 119.133 407.25 118.461C406.156 117.789 405.242 116.859 404.508 115.672C403.773 114.484 403.18 113.125 402.727 111.594C402.273 110.062 401.914 108.445 401.648 106.742V106.109C401.914 104.281 402.273 102.586 402.727 101.023C403.18 99.4453 403.773 98.0703 404.508 96.8984C405.242 95.7266 406.148 94.8125 407.227 94.1562C408.32 93.5 409.625 93.1719 411.141 93.1719C412.75 93.1719 414.164 93.4766 415.383 94.0859C416.617 94.6953 417.648 95.5703 418.477 96.7109C419.32 97.8359 419.953 99.1875 420.375 100.766C420.797 102.344 421.008 104.094 421.008 106.016ZM413.109 106.508V106.016C413.109 105.031 413.039 104.133 412.898 103.32C412.758 102.492 412.531 101.773 412.219 101.164C411.922 100.555 411.523 100.086 411.023 99.7578C410.523 99.4297 409.906 99.2656 409.172 99.2656C408.328 99.2656 407.617 99.3984 407.039 99.6641C406.477 99.9141 406.023 100.305 405.68 100.836C405.352 101.352 405.117 102 404.977 102.781C404.852 103.547 404.797 104.445 404.812 105.477V107.398C404.781 108.586 404.898 109.633 405.164 110.539C405.43 111.43 405.891 112.125 406.547 112.625C407.203 113.125 408.094 113.375 409.219 113.375C409.969 113.375 410.594 113.203 411.094 112.859C411.594 112.5 411.992 112.008 412.289 111.383C412.586 110.742 412.797 110.008 412.922 109.18C413.047 108.352 413.109 107.461 413.109 106.508ZM432.492 98.5156V128.75H424.594V93.6406H431.953L432.492 98.5156ZM448.055 106.016V106.508C448.055 108.352 447.844 110.062 447.422 111.641C447 113.219 446.375 114.594 445.547 115.766C444.719 116.938 443.688 117.852 442.453 118.508C441.234 119.148 439.82 119.469 438.211 119.469C436.695 119.469 435.391 119.133 434.297 118.461C433.203 117.789 432.289 116.859 431.555 115.672C430.82 114.484 430.227 113.125 429.773 111.594C429.32 110.062 428.961 108.445 428.695 106.742V106.109C428.961 104.281 429.32 102.586 429.773 101.023C430.227 99.4453 430.82 98.0703 431.555 96.8984C432.289 95.7266 433.195 94.8125 434.273 94.1562C435.367 93.5 436.672 93.1719 438.188 93.1719C439.797 93.1719 441.211 93.4766 442.43 94.0859C443.664 94.6953 444.695 95.5703 445.523 96.7109C446.367 97.8359 447 99.1875 447.422 100.766C447.844 102.344 448.055 104.094 448.055 106.016ZM440.156 106.508V106.016C440.156 105.031 440.086 104.133 439.945 103.32C439.805 102.492 439.578 101.773 439.266 101.164C438.969 100.555 438.57 100.086 438.07 99.7578C437.57 99.4297 436.953 99.2656 436.219 99.2656C435.375 99.2656 434.664 99.3984 434.086 99.6641C433.523 99.9141 433.07 100.305 432.727 100.836C432.398 101.352 432.164 102 432.023 102.781C431.898 103.547 431.844 104.445 431.859 105.477V107.398C431.828 108.586 431.945 109.633 432.211 110.539C432.477 111.43 432.938 112.125 433.594 112.625C434.25 113.125 435.141 113.375 436.266 113.375C437.016 113.375 437.641 113.203 438.141 112.859C438.641 112.5 439.039 112.008 439.336 111.383C439.633 110.742 439.844 110.008 439.969 109.18C440.094 108.352 440.156 107.461 440.156 106.508Z" fill="black"/>
<path d="M1134 0H1348C1356.28 0 1363 6.71573 1363 15V148C1363 156.284 1356.28 163 1348 163H1134V0Z" fill="#10212F"/>
<path d="M1248.5 70.1666V58.8333H1237.17" stroke="white" stroke-width="5" stroke-linecap="round" stroke-linejoin="round"/>
<path d="M1265.5 70.1667H1231.5C1228.37 70.1667 1225.83 72.7037 1225.83 75.8334V98.5C1225.83 101.63 1228.37 104.167 1231.5 104.167H1265.5C1268.63 104.167 1271.17 101.63 1271.17 98.5V75.8334C1271.17 72.7037 1268.63 70.1667 1265.5 70.1667Z" stroke="white" stroke-width="5" stroke-linecap="round" stroke-linejoin="round"/>
<path d="M1220.17 87.1667H1225.83" stroke="white" stroke-width="5" stroke-linecap="round" stroke-linejoin="round"/>
<path d="M1271.17 87.1667H1276.83" stroke="white" stroke-width="5" stroke-linecap="round" stroke-linejoin="round"/>
<path d="M1257 84.3333V90" stroke="white" stroke-width="5" stroke-linecap="round" stroke-linejoin="round"/>
<path d="M1240 84.3333V90" stroke="white" stroke-width="5" stroke-linecap="round" stroke-linejoin="round"/>
<path d="M101.906 53.9219L94.3945 51.2383V48.0859L104.602 52.375V54.6367L101.906 53.9219ZM94.3945 56.1719L101.918 53.4297L104.602 52.7852V55.0352L94.3945 59.3242V56.1719ZM119.836 46.8555L115.195 61H111.457L117.797 43.9375H120.176L119.836 46.8555ZM123.691 61L119.039 46.8555L118.664 43.9375H121.066L127.441 61H123.691ZM123.48 54.6484V57.4023H114.469V54.6484H123.48ZM132.188 51.0859V61H128.812V48.3203H131.988L132.188 51.0859ZM136.008 48.2383L135.949 51.3672C135.785 51.3438 135.586 51.3242 135.352 51.3086C135.125 51.2852 134.918 51.2734 134.73 51.2734C134.254 51.2734 133.84 51.3359 133.488 51.4609C133.145 51.5781 132.855 51.7539 132.621 51.9883C132.395 52.2227 132.223 52.5078 132.105 52.8438C131.996 53.1797 131.934 53.5625 131.918 53.9922L131.238 53.7812C131.238 52.9609 131.32 52.207 131.484 51.5195C131.648 50.8242 131.887 50.2188 132.199 49.7031C132.52 49.1875 132.91 48.7891 133.371 48.5078C133.832 48.2266 134.359 48.0859 134.953 48.0859C135.141 48.0859 135.332 48.1016 135.527 48.1328C135.723 48.1562 135.883 48.1914 136.008 48.2383ZM142.605 58.5977C143.02 58.5977 143.387 58.5195 143.707 58.3633C144.027 58.1992 144.277 57.9727 144.457 57.6836C144.645 57.3867 144.742 57.0391 144.75 56.6406H147.926C147.918 57.5312 147.68 58.3242 147.211 59.0195C146.742 59.707 146.113 60.25 145.324 60.6484C144.535 61.0391 143.652 61.2344 142.676 61.2344C141.691 61.2344 140.832 61.0703 140.098 60.7422C139.371 60.4141 138.766 59.9609 138.281 59.3828C137.797 58.7969 137.434 58.1172 137.191 57.3438C136.949 56.5625 136.828 55.7266 136.828 54.8359V54.4961C136.828 53.5977 136.949 52.7617 137.191 51.9883C137.434 51.207 137.797 50.5273 138.281 49.9492C138.766 49.3633 139.371 48.9062 140.098 48.5781C140.824 48.25 141.676 48.0859 142.652 48.0859C143.691 48.0859 144.602 48.2852 145.383 48.6836C146.172 49.082 146.789 49.6523 147.234 50.3945C147.688 51.1289 147.918 52 147.926 53.0078H144.75C144.742 52.5859 144.652 52.2031 144.48 51.8594C144.316 51.5156 144.074 51.2422 143.754 51.0391C143.441 50.8281 143.055 50.7227 142.594 50.7227C142.102 50.7227 141.699 50.8281 141.387 51.0391C141.074 51.2422 140.832 51.5234 140.66 51.8828C140.488 52.2344 140.367 52.6367 140.297 53.0898C140.234 53.5352 140.203 54.0039 140.203 54.4961V54.8359C140.203 55.3281 140.234 55.8008 140.297 56.2539C140.359 56.707 140.477 57.1094 140.648 57.4609C140.828 57.8125 141.074 58.0898 141.387 58.293C141.699 58.4961 142.105 58.5977 142.605 58.5977ZM153.176 43V61H149.801V43H153.176ZM152.695 54.2148H151.77C151.777 53.332 151.895 52.5195 152.121 51.7773C152.348 51.0273 152.672 50.3789 153.094 49.832C153.516 49.2773 154.02 48.8477 154.605 48.543C155.199 48.2383 155.855 48.0859 156.574 48.0859C157.199 48.0859 157.766 48.1758 158.273 48.3555C158.789 48.5273 159.23 48.8086 159.598 49.1992C159.973 49.582 160.262 50.0859 160.465 50.7109C160.668 51.3359 160.77 52.0938 160.77 52.9844V61H157.371V52.9609C157.371 52.3984 157.289 51.957 157.125 51.6367C156.969 51.3086 156.738 51.0781 156.434 50.9453C156.137 50.8047 155.77 50.7344 155.332 50.7344C154.848 50.7344 154.434 50.8242 154.09 51.0039C153.754 51.1836 153.484 51.4336 153.281 51.7539C153.078 52.0664 152.93 52.4336 152.836 52.8555C152.742 53.2773 152.695 53.7305 152.695 54.2148ZM166.898 48.3203V61H163.512V48.3203H166.898ZM163.301 45.0156C163.301 44.5234 163.473 44.1172 163.816 43.7969C164.16 43.4766 164.621 43.3164 165.199 43.3164C165.77 43.3164 166.227 43.4766 166.57 43.7969C166.922 44.1172 167.098 44.5234 167.098 45.0156C167.098 45.5078 166.922 45.9141 166.57 46.2344C166.227 46.5547 165.77 46.7148 165.199 46.7148C164.621 46.7148 164.16 46.5547 163.816 46.2344C163.473 45.9141 163.301 45.5078 163.301 45.0156ZM175.898 48.3203V50.7109H168.516V48.3203H175.898ZM170.344 45.1914H173.719V57.1797C173.719 57.5469 173.766 57.8281 173.859 58.0234C173.961 58.2188 174.109 58.3555 174.305 58.4336C174.5 58.5039 174.746 58.5391 175.043 58.5391C175.254 58.5391 175.441 58.5312 175.605 58.5156C175.777 58.4922 175.922 58.4688 176.039 58.4453L176.051 60.9297C175.762 61.0234 175.449 61.0977 175.113 61.1523C174.777 61.207 174.406 61.2344 174 61.2344C173.258 61.2344 172.609 61.1133 172.055 60.8711C171.508 60.6211 171.086 60.2227 170.789 59.6758C170.492 59.1289 170.344 58.4102 170.344 57.5195V45.1914ZM183.656 61.2344C182.672 61.2344 181.789 61.0781 181.008 60.7656C180.227 60.4453 179.562 60.0039 179.016 59.4414C178.477 58.8789 178.062 58.2266 177.773 57.4844C177.484 56.7344 177.34 55.9375 177.34 55.0938V54.625C177.34 53.6641 177.477 52.7852 177.75 51.9883C178.023 51.1914 178.414 50.5 178.922 49.9141C179.438 49.3281 180.062 48.8789 180.797 48.5664C181.531 48.2461 182.359 48.0859 183.281 48.0859C184.18 48.0859 184.977 48.2344 185.672 48.5312C186.367 48.8281 186.949 49.25 187.418 49.7969C187.895 50.3438 188.254 51 188.496 51.7656C188.738 52.5234 188.859 53.3672 188.859 54.2969V55.7031H178.781V53.4531H185.543V53.1953C185.543 52.7266 185.457 52.3086 185.285 51.9414C185.121 51.5664 184.871 51.2695 184.535 51.0508C184.199 50.832 183.77 50.7227 183.246 50.7227C182.801 50.7227 182.418 50.8203 182.098 51.0156C181.777 51.2109 181.516 51.4844 181.312 51.8359C181.117 52.1875 180.969 52.6016 180.867 53.0781C180.773 53.5469 180.727 54.0625 180.727 54.625V55.0938C180.727 55.6016 180.797 56.0703 180.938 56.5C181.086 56.9297 181.293 57.3008 181.559 57.6133C181.832 57.9258 182.16 58.168 182.543 58.3398C182.934 58.5117 183.375 58.5977 183.867 58.5977C184.477 58.5977 185.043 58.4805 185.566 58.2461C186.098 58.0039 186.555 57.6406 186.938 57.1562L188.578 58.9375C188.312 59.3203 187.949 59.6875 187.488 60.0391C187.035 60.3906 186.488 60.6797 185.848 60.9062C185.207 61.125 184.477 61.2344 183.656 61.2344ZM193.5 48.3203L195.598 52.1758L197.754 48.3203H201.352L197.766 54.5195L201.516 61H197.906L195.621 56.9219L193.336 61H189.727L193.477 54.5195L189.891 48.3203H193.5ZM209.203 48.3203V50.7109H201.82V48.3203H209.203ZM203.648 45.1914H207.023V57.1797C207.023 57.5469 207.07 57.8281 207.164 58.0234C207.266 58.2188 207.414 58.3555 207.609 58.4336C207.805 58.5039 208.051 58.5391 208.348 58.5391C208.559 58.5391 208.746 58.5312 208.91 58.5156C209.082 58.4922 209.227 58.4688 209.344 58.4453L209.355 60.9297C209.066 61.0234 208.754 61.0977 208.418 61.1523C208.082 61.207 207.711 61.2344 207.305 61.2344C206.562 61.2344 205.914 61.1133 205.359 60.8711C204.812 60.6211 204.391 60.2227 204.094 59.6758C203.797 59.1289 203.648 58.4102 203.648 57.5195V45.1914Z" fill="#888888"/>
</g>
<defs>
<clipPath id="clip0_412_16">
<rect width="1363" height="163" fill="white"/>
</clipPath>
</defs>
</svg>
