<svg width="1363" height="163" viewBox="0 0 1363 163" fill="none" xmlns="http://www.w3.org/2000/svg">
<path d="M0 15C0 6.71573 6.71573 0 15 0H37V163H15C6.71573 163 0 156.284 0 148V15Z" fill="#424242"/>
<rect width="1097" height="163" transform="translate(37)" fill="#F0F0F0"/>
<path d="M101.906 53.9219L94.3945 51.2383V48.0859L104.602 52.375V54.6367L101.906 53.9219ZM94.3945 56.1719L101.918 53.4297L104.602 52.7852V55.0352L94.3945 59.3242V56.1719ZM119.836 46.8555L115.195 61H111.457L117.797 43.9375H120.176L119.836 46.8555ZM123.691 61L119.039 46.8555L118.664 43.9375H121.066L127.441 61H123.691ZM123.48 54.6484V57.4023H114.469V54.6484H123.48ZM132.188 51.0859V61H128.812V48.3203H131.988L132.188 51.0859ZM136.008 48.2383L135.949 51.3672C135.785 51.3438 135.586 51.3242 135.352 51.3086C135.125 51.2852 134.918 51.2734 134.73 51.2734C134.254 51.2734 133.84 51.3359 133.488 51.4609C133.145 51.5781 132.855 51.7539 132.621 51.9883C132.395 52.2227 132.223 52.5078 132.105 52.8438C131.996 53.1797 131.934 53.5625 131.918 53.9922L131.238 53.7812C131.238 52.9609 131.32 52.207 131.484 51.5195C131.648 50.8242 131.887 50.2188 132.199 49.7031C132.52 49.1875 132.91 48.7891 133.371 48.5078C133.832 48.2266 134.359 48.0859 134.953 48.0859C135.141 48.0859 135.332 48.1016 135.527 48.1328C135.723 48.1562 135.883 48.1914 136.008 48.2383ZM142.605 58.5977C143.02 58.5977 143.387 58.5195 143.707 58.3633C144.027 58.1992 144.277 57.9727 144.457 57.6836C144.645 57.3867 144.742 57.0391 144.75 56.6406H147.926C147.918 57.5312 147.68 58.3242 147.211 59.0195C146.742 59.707 146.113 60.25 145.324 60.6484C144.535 61.0391 143.652 61.2344 142.676 61.2344C141.691 61.2344 140.832 61.0703 140.098 60.7422C139.371 60.4141 138.766 59.9609 138.281 59.3828C137.797 58.7969 137.434 58.1172 137.191 57.3438C136.949 56.5625 136.828 55.7266 136.828 54.8359V54.4961C136.828 53.5977 136.949 52.7617 137.191 51.9883C137.434 51.207 137.797 50.5273 138.281 49.9492C138.766 49.3633 139.371 48.9062 140.098 48.5781C140.824 48.25 141.676 48.0859 142.652 48.0859C143.691 48.0859 144.602 48.2852 145.383 48.6836C146.172 49.082 146.789 49.6523 147.234 50.3945C147.688 51.1289 147.918 52 147.926 53.0078H144.75C144.742 52.5859 144.652 52.2031 144.48 51.8594C144.316 51.5156 144.074 51.2422 143.754 51.0391C143.441 50.8281 143.055 50.7227 142.594 50.7227C142.102 50.7227 141.699 50.8281 141.387 51.0391C141.074 51.2422 140.832 51.5234 140.66 51.8828C140.488 52.2344 140.367 52.6367 140.297 53.0898C140.234 53.5352 140.203 54.0039 140.203 54.4961V54.8359C140.203 55.3281 140.234 55.8008 140.297 56.2539C140.359 56.707 140.477 57.1094 140.648 57.4609C140.828 57.8125 141.074 58.0898 141.387 58.293C141.699 58.4961 142.105 58.5977 142.605 58.5977ZM153.176 43V61H149.801V43H153.176ZM152.695 54.2148H151.77C151.777 53.332 151.895 52.5195 152.121 51.7773C152.348 51.0273 152.672 50.3789 153.094 49.832C153.516 49.2773 154.02 48.8477 154.605 48.543C155.199 48.2383 155.855 48.0859 156.574 48.0859C157.199 48.0859 157.766 48.1758 158.273 48.3555C158.789 48.5273 159.23 48.8086 159.598 49.1992C159.973 49.582 160.262 50.0859 160.465 50.7109C160.668 51.3359 160.77 52.0938 160.77 52.9844V61H157.371V52.9609C157.371 52.3984 157.289 51.957 157.125 51.6367C156.969 51.3086 156.738 51.0781 156.434 50.9453C156.137 50.8047 155.77 50.7344 155.332 50.7344C154.848 50.7344 154.434 50.8242 154.09 51.0039C153.754 51.1836 153.484 51.4336 153.281 51.7539C153.078 52.0664 152.93 52.4336 152.836 52.8555C152.742 53.2773 152.695 53.7305 152.695 54.2148ZM166.898 48.3203V61H163.512V48.3203H166.898ZM163.301 45.0156C163.301 44.5234 163.473 44.1172 163.816 43.7969C164.16 43.4766 164.621 43.3164 165.199 43.3164C165.77 43.3164 166.227 43.4766 166.57 43.7969C166.922 44.1172 167.098 44.5234 167.098 45.0156C167.098 45.5078 166.922 45.9141 166.57 46.2344C166.227 46.5547 165.77 46.7148 165.199 46.7148C164.621 46.7148 164.16 46.5547 163.816 46.2344C163.473 45.9141 163.301 45.5078 163.301 45.0156ZM175.898 48.3203V50.7109H168.516V48.3203H175.898ZM170.344 45.1914H173.719V57.1797C173.719 57.5469 173.766 57.8281 173.859 58.0234C173.961 58.2188 174.109 58.3555 174.305 58.4336C174.5 58.5039 174.746 58.5391 175.043 58.5391C175.254 58.5391 175.441 58.5312 175.605 58.5156C175.777 58.4922 175.922 58.4688 176.039 58.4453L176.051 60.9297C175.762 61.0234 175.449 61.0977 175.113 61.1523C174.777 61.207 174.406 61.2344 174 61.2344C173.258 61.2344 172.609 61.1133 172.055 60.8711C171.508 60.6211 171.086 60.2227 170.789 59.6758C170.492 59.1289 170.344 58.4102 170.344 57.5195V45.1914ZM183.656 61.2344C182.672 61.2344 181.789 61.0781 181.008 60.7656C180.227 60.4453 179.562 60.0039 179.016 59.4414C178.477 58.8789 178.062 58.2266 177.773 57.4844C177.484 56.7344 177.34 55.9375 177.34 55.0938V54.625C177.34 53.6641 177.477 52.7852 177.75 51.9883C178.023 51.1914 178.414 50.5 178.922 49.9141C179.438 49.3281 180.062 48.8789 180.797 48.5664C181.531 48.2461 182.359 48.0859 183.281 48.0859C184.18 48.0859 184.977 48.2344 185.672 48.5312C186.367 48.8281 186.949 49.25 187.418 49.7969C187.895 50.3438 188.254 51 188.496 51.7656C188.738 52.5234 188.859 53.3672 188.859 54.2969V55.7031H178.781V53.4531H185.543V53.1953C185.543 52.7266 185.457 52.3086 185.285 51.9414C185.121 51.5664 184.871 51.2695 184.535 51.0508C184.199 50.832 183.77 50.7227 183.246 50.7227C182.801 50.7227 182.418 50.8203 182.098 51.0156C181.777 51.2109 181.516 51.4844 181.312 51.8359C181.117 52.1875 180.969 52.6016 180.867 53.0781C180.773 53.5469 180.727 54.0625 180.727 54.625V55.0938C180.727 55.6016 180.797 56.0703 180.938 56.5C181.086 56.9297 181.293 57.3008 181.559 57.6133C181.832 57.9258 182.16 58.168 182.543 58.3398C182.934 58.5117 183.375 58.5977 183.867 58.5977C184.477 58.5977 185.043 58.4805 185.566 58.2461C186.098 58.0039 186.555 57.6406 186.938 57.1562L188.578 58.9375C188.312 59.3203 187.949 59.6875 187.488 60.0391C187.035 60.3906 186.488 60.6797 185.848 60.9062C185.207 61.125 184.477 61.2344 183.656 61.2344ZM193.5 48.3203L195.598 52.1758L197.754 48.3203H201.352L197.766 54.5195L201.516 61H197.906L195.621 56.9219L193.336 61H189.727L193.477 54.5195L189.891 48.3203H193.5ZM209.203 48.3203V50.7109H201.82V48.3203H209.203ZM203.648 45.1914H207.023V57.1797C207.023 57.5469 207.07 57.8281 207.164 58.0234C207.266 58.2188 207.414 58.3555 207.609 58.4336C207.805 58.5039 208.051 58.5391 208.348 58.5391C208.559 58.5391 208.746 58.5312 208.91 58.5156C209.082 58.4922 209.227 58.4688 209.344 58.4453L209.355 60.9297C209.066 61.0234 208.754 61.0977 208.418 61.1523C208.082 61.207 207.711 61.2344 207.305 61.2344C206.562 61.2344 205.914 61.1133 205.359 60.8711C204.812 60.6211 204.391 60.2227 204.094 59.6758C203.797 59.1289 203.648 58.4102 203.648 57.5195V45.1914Z" fill="#888888"/>
<path d="M106.688 119H99.1172L99.1641 112.672H106.688C108.25 112.672 109.57 112.297 110.648 111.547C111.742 110.797 112.57 109.68 113.133 108.195C113.711 106.695 114 104.852 114 102.664V101.188C114 99.5469 113.836 98.1094 113.508 96.875C113.195 95.625 112.727 94.5859 112.102 93.7578C111.477 92.9141 110.695 92.2812 109.758 91.8594C108.836 91.4375 107.773 91.2266 106.57 91.2266H98.9766V84.875H106.57C108.883 84.875 111 85.2734 112.922 86.0703C114.859 86.8516 116.531 87.9766 117.938 89.4453C119.359 90.8984 120.453 92.625 121.219 94.625C122 96.6094 122.391 98.8125 122.391 101.234V102.664C122.391 105.07 122 107.273 121.219 109.273C120.453 111.273 119.367 113 117.961 114.453C116.555 115.906 114.891 117.031 112.969 117.828C111.062 118.609 108.969 119 106.688 119ZM103.828 84.875V119H95.6016V84.875H103.828ZM138.586 119.469C136.523 119.469 134.68 119.148 133.055 118.508C131.43 117.852 130.055 116.953 128.93 115.812C127.82 114.672 126.969 113.359 126.375 111.875C125.797 110.391 125.508 108.82 125.508 107.164V106.273C125.508 104.414 125.766 102.695 126.281 101.117C126.797 99.5234 127.562 98.1328 128.578 96.9453C129.594 95.7578 130.867 94.8359 132.398 94.1797C133.93 93.5078 135.711 93.1719 137.742 93.1719C139.539 93.1719 141.148 93.4609 142.57 94.0391C143.992 94.6172 145.195 95.4453 146.18 96.5234C147.18 97.6016 147.938 98.9062 148.453 100.438C148.984 101.969 149.25 103.688 149.25 105.594V108.805H128.531V103.859H141.539V103.25C141.555 102.406 141.406 101.688 141.094 101.094C140.797 100.5 140.359 100.047 139.781 99.7344C139.203 99.4219 138.5 99.2656 137.672 99.2656C136.812 99.2656 136.102 99.4531 135.539 99.8281C134.992 100.203 134.562 100.719 134.25 101.375C133.953 102.016 133.742 102.758 133.617 103.602C133.492 104.445 133.43 105.336 133.43 106.273V107.164C133.43 108.102 133.555 108.953 133.805 109.719C134.07 110.484 134.445 111.141 134.93 111.688C135.43 112.219 136.023 112.633 136.711 112.93C137.414 113.227 138.211 113.375 139.102 113.375C140.18 113.375 141.242 113.172 142.289 112.766C143.336 112.359 144.234 111.688 144.984 110.75L148.57 115.016C148.055 115.75 147.32 116.461 146.367 117.148C145.43 117.836 144.305 118.398 142.992 118.836C141.68 119.258 140.211 119.469 138.586 119.469ZM160.43 98.5156V128.75H152.531V93.6406H159.891L160.43 98.5156ZM175.992 106.016V106.508C175.992 108.352 175.781 110.062 175.359 111.641C174.938 113.219 174.312 114.594 173.484 115.766C172.656 116.938 171.625 117.852 170.391 118.508C169.172 119.148 167.758 119.469 166.148 119.469C164.633 119.469 163.328 119.133 162.234 118.461C161.141 117.789 160.227 116.859 159.492 115.672C158.758 114.484 158.164 113.125 157.711 111.594C157.258 110.062 156.898 108.445 156.633 106.742V106.109C156.898 104.281 157.258 102.586 157.711 101.023C158.164 99.4453 158.758 98.0703 159.492 96.8984C160.227 95.7266 161.133 94.8125 162.211 94.1562C163.305 93.5 164.609 93.1719 166.125 93.1719C167.734 93.1719 169.148 93.4766 170.367 94.0859C171.602 94.6953 172.633 95.5703 173.461 96.7109C174.305 97.8359 174.938 99.1875 175.359 100.766C175.781 102.344 175.992 104.094 175.992 106.016ZM168.094 106.508V106.016C168.094 105.031 168.023 104.133 167.883 103.32C167.742 102.492 167.516 101.773 167.203 101.164C166.906 100.555 166.508 100.086 166.008 99.7578C165.508 99.4297 164.891 99.2656 164.156 99.2656C163.312 99.2656 162.602 99.3984 162.023 99.6641C161.461 99.9141 161.008 100.305 160.664 100.836C160.336 101.352 160.102 102 159.961 102.781C159.836 103.547 159.781 104.445 159.797 105.477V107.398C159.766 108.586 159.883 109.633 160.148 110.539C160.414 111.43 160.875 112.125 161.531 112.625C162.188 113.125 163.078 113.375 164.203 113.375C164.953 113.375 165.578 113.203 166.078 112.859C166.578 112.5 166.977 112.008 167.273 111.383C167.57 110.742 167.781 110.008 167.906 109.18C168.031 108.352 168.094 107.461 168.094 106.508ZM187.852 83V119H179.93V83H187.852ZM191.742 106.578V106.086C191.742 104.227 192.008 102.516 192.539 100.953C193.07 99.375 193.852 98.0078 194.883 96.8516C195.914 95.6953 197.188 94.7969 198.703 94.1562C200.219 93.5 201.969 93.1719 203.953 93.1719C205.953 93.1719 207.711 93.5 209.227 94.1562C210.758 94.7969 212.039 95.6953 213.07 96.8516C214.102 98.0078 214.883 99.375 215.414 100.953C215.945 102.516 216.211 104.227 216.211 106.086V106.578C216.211 108.422 215.945 110.133 215.414 111.711C214.883 113.273 214.102 114.641 213.07 115.812C212.039 116.969 210.766 117.867 209.25 118.508C207.734 119.148 205.984 119.469 204 119.469C202.016 119.469 200.258 119.148 198.727 118.508C197.195 117.867 195.914 116.969 194.883 115.812C193.852 114.641 193.07 113.273 192.539 111.711C192.008 110.133 191.742 108.422 191.742 106.578ZM199.641 106.086V106.578C199.641 107.531 199.711 108.422 199.852 109.25C199.992 110.078 200.227 110.805 200.555 111.43C200.883 112.039 201.328 112.516 201.891 112.859C202.453 113.203 203.156 113.375 204 113.375C204.828 113.375 205.516 113.203 206.062 112.859C206.625 112.516 207.07 112.039 207.398 111.43C207.727 110.805 207.961 110.078 208.102 109.25C208.242 108.422 208.312 107.531 208.312 106.578V106.086C208.312 105.164 208.242 104.297 208.102 103.484C207.961 102.656 207.727 101.93 207.398 101.305C207.07 100.664 206.625 100.164 206.062 99.8047C205.5 99.4453 204.797 99.2656 203.953 99.2656C203.125 99.2656 202.43 99.4453 201.867 99.8047C201.32 100.164 200.883 100.664 200.555 101.305C200.227 101.93 199.992 102.656 199.852 103.484C199.711 104.297 199.641 105.164 199.641 106.086ZM227.133 116.023L233.695 93.6406H242.18L231.984 122.773C231.766 123.414 231.477 124.102 231.117 124.836C230.758 125.586 230.266 126.297 229.641 126.969C229.016 127.641 228.211 128.188 227.227 128.609C226.258 129.031 225.055 129.242 223.617 129.242C222.852 129.242 222.289 129.203 221.93 129.125C221.586 129.062 221.055 128.945 220.336 128.773V123.125C220.539 123.125 220.711 123.125 220.852 123.125C221.008 123.125 221.18 123.125 221.367 123.125C222.211 123.125 222.883 123.039 223.383 122.867C223.898 122.695 224.289 122.445 224.555 122.117C224.836 121.789 225.055 121.391 225.211 120.922L227.133 116.023ZM225.469 93.6406L230.461 111.383L231.328 119.75H226.031L217.008 93.6406H225.469ZM252.211 99.0078V119H244.312V93.6406H251.719L252.211 99.0078ZM251.25 105.453L249.445 105.5C249.445 103.719 249.656 102.078 250.078 100.578C250.5 99.0781 251.125 97.7734 251.953 96.6641C252.781 95.5547 253.797 94.6953 255 94.0859C256.219 93.4766 257.625 93.1719 259.219 93.1719C260.328 93.1719 261.336 93.3438 262.242 93.6875C263.148 94.0156 263.93 94.5391 264.586 95.2578C265.242 95.9609 265.742 96.8828 266.086 98.0234C266.445 99.1484 266.625 100.5 266.625 102.078V119H258.727V103.086C258.727 102.008 258.602 101.195 258.352 100.648C258.117 100.102 257.773 99.7344 257.32 99.5469C256.867 99.3594 256.312 99.2656 255.656 99.2656C254.969 99.2656 254.352 99.4219 253.805 99.7344C253.258 100.047 252.789 100.484 252.398 101.047C252.023 101.594 251.734 102.242 251.531 102.992C251.344 103.742 251.25 104.562 251.25 105.453ZM265.734 105.453L263.531 105.5C263.531 103.719 263.727 102.078 264.117 100.578C264.523 99.0781 265.125 97.7734 265.922 96.6641C266.734 95.5547 267.742 94.6953 268.945 94.0859C270.148 93.4766 271.547 93.1719 273.141 93.1719C274.297 93.1719 275.359 93.3438 276.328 93.6875C277.297 94.0312 278.133 94.5859 278.836 95.3516C279.539 96.1172 280.086 97.1328 280.477 98.3984C280.867 99.6484 281.062 101.195 281.062 103.039V119H273.141V103.039C273.141 101.992 273.016 101.203 272.766 100.672C272.531 100.125 272.188 99.7578 271.734 99.5703C271.281 99.3672 270.742 99.2656 270.117 99.2656C269.367 99.2656 268.719 99.4219 268.172 99.7344C267.625 100.047 267.164 100.484 266.789 101.047C266.43 101.594 266.164 102.242 265.992 102.992C265.82 103.742 265.734 104.562 265.734 105.453ZM297.867 119.469C295.805 119.469 293.961 119.148 292.336 118.508C290.711 117.852 289.336 116.953 288.211 115.812C287.102 114.672 286.25 113.359 285.656 111.875C285.078 110.391 284.789 108.82 284.789 107.164V106.273C284.789 104.414 285.047 102.695 285.562 101.117C286.078 99.5234 286.844 98.1328 287.859 96.9453C288.875 95.7578 290.148 94.8359 291.68 94.1797C293.211 93.5078 294.992 93.1719 297.023 93.1719C298.82 93.1719 300.43 93.4609 301.852 94.0391C303.273 94.6172 304.477 95.4453 305.461 96.5234C306.461 97.6016 307.219 98.9062 307.734 100.438C308.266 101.969 308.531 103.688 308.531 105.594V108.805H287.812V103.859H300.82V103.25C300.836 102.406 300.688 101.688 300.375 101.094C300.078 100.5 299.641 100.047 299.062 99.7344C298.484 99.4219 297.781 99.2656 296.953 99.2656C296.094 99.2656 295.383 99.4531 294.82 99.8281C294.273 100.203 293.844 100.719 293.531 101.375C293.234 102.016 293.023 102.758 292.898 103.602C292.773 104.445 292.711 105.336 292.711 106.273V107.164C292.711 108.102 292.836 108.953 293.086 109.719C293.352 110.484 293.727 111.141 294.211 111.688C294.711 112.219 295.305 112.633 295.992 112.93C296.695 113.227 297.492 113.375 298.383 113.375C299.461 113.375 300.523 113.172 301.57 112.766C302.617 112.359 303.516 111.688 304.266 110.75L307.852 115.016C307.336 115.75 306.602 116.461 305.648 117.148C304.711 117.836 303.586 118.398 302.273 118.836C300.961 119.258 299.492 119.469 297.867 119.469ZM319.5 99.0547V119H311.602V93.6406H319.008L319.5 99.0547ZM318.562 105.453L316.711 105.5C316.711 103.562 316.945 101.836 317.414 100.32C317.883 98.7891 318.547 97.4922 319.406 96.4297C320.266 95.3672 321.289 94.5625 322.477 94.0156C323.68 93.4531 325.016 93.1719 326.484 93.1719C327.656 93.1719 328.727 93.3438 329.695 93.6875C330.68 94.0312 331.523 94.5859 332.227 95.3516C332.945 96.1172 333.492 97.1328 333.867 98.3984C334.258 99.6484 334.453 101.195 334.453 103.039V119H326.508V103.016C326.508 102 326.367 101.227 326.086 100.695C325.805 100.148 325.398 99.7734 324.867 99.5703C324.336 99.3672 323.688 99.2656 322.922 99.2656C322.109 99.2656 321.422 99.4219 320.859 99.7344C320.297 100.047 319.844 100.484 319.5 101.047C319.172 101.594 318.93 102.242 318.773 102.992C318.633 103.742 318.562 104.562 318.562 105.453ZM352.195 93.6406V99.125H336.914V93.6406H352.195ZM340.125 87.3359H348.023V110.727C348.023 111.398 348.102 111.922 348.258 112.297C348.414 112.656 348.68 112.914 349.055 113.07C349.445 113.211 349.961 113.281 350.602 113.281C351.055 113.281 351.43 113.273 351.727 113.258C352.023 113.227 352.305 113.188 352.57 113.141V118.789C351.898 119.008 351.195 119.172 350.461 119.281C349.727 119.406 348.945 119.469 348.117 119.469C346.43 119.469 344.984 119.203 343.781 118.672C342.594 118.141 341.688 117.305 341.062 116.164C340.438 115.023 340.125 113.539 340.125 111.711V87.3359Z" fill="black"/>
<path d="M1134 0H1348C1356.28 0 1363 6.71573 1363 15V148C1363 156.284 1356.28 163 1348 163H1134V0Z" fill="#10212F"/>
<path d="M1212.5 117.5L1212.5 45.5L1284.5 45.5L1284.5 117.5L1212.5 117.5Z" fill="white" fill-opacity="0.01"/>
<path d="M1221.5 81.5125L1221.5 108.5L1275.5 108.5L1275.5 81.5" stroke="white" stroke-width="7.24" stroke-linecap="round" stroke-linejoin="round"/>
<path d="M1262 68L1248.5 54.5L1235 68" stroke="white" stroke-width="7.24" stroke-linecap="round" stroke-linejoin="round"/>
<path d="M1248.49 93.4999L1248.49 54.5" stroke="white" stroke-width="7.24" stroke-linecap="round" stroke-linejoin="round"/>
</svg>
