<svg width="1363" height="163" viewBox="0 0 1363 163" fill="none" xmlns="http://www.w3.org/2000/svg">
<path d="M0 15C0 6.71573 6.71573 0 15 0H37V163H15C6.71573 163 0 156.284 0 148V15Z" fill="#424242"/>
<rect width="1097" height="163" transform="translate(37)" fill="#F0F0F0"/>
<path d="M101.906 53.9219L94.3945 51.2383V48.0859L104.602 52.375V54.6367L101.906 53.9219ZM94.3945 56.1719L101.918 53.4297L104.602 52.7852V55.0352L94.3945 59.3242V56.1719ZM125.812 46.8555L121.172 61H117.434L123.773 43.9375H126.152L125.812 46.8555ZM129.668 61L125.016 46.8555L124.641 43.9375H127.043L133.418 61H129.668ZM129.457 54.6484V57.4023H120.445V54.6484H129.457ZM138.164 51.0859V61H134.789V48.3203H137.965L138.164 51.0859ZM141.984 48.2383L141.926 51.3672C141.762 51.3438 141.562 51.3242 141.328 51.3086C141.102 51.2852 140.895 51.2734 140.707 51.2734C140.23 51.2734 139.816 51.3359 139.465 51.4609C139.121 51.5781 138.832 51.7539 138.598 51.9883C138.371 52.2227 138.199 52.5078 138.082 52.8438C137.973 53.1797 137.91 53.5625 137.895 53.9922L137.215 53.7812C137.215 52.9609 137.297 52.207 137.461 51.5195C137.625 50.8242 137.863 50.2188 138.176 49.7031C138.496 49.1875 138.887 48.7891 139.348 48.5078C139.809 48.2266 140.336 48.0859 140.93 48.0859C141.117 48.0859 141.309 48.1016 141.504 48.1328C141.699 48.1562 141.859 48.1914 141.984 48.2383ZM148.582 58.5977C148.996 58.5977 149.363 58.5195 149.684 58.3633C150.004 58.1992 150.254 57.9727 150.434 57.6836C150.621 57.3867 150.719 57.0391 150.727 56.6406H153.902C153.895 57.5312 153.656 58.3242 153.188 59.0195C152.719 59.707 152.09 60.25 151.301 60.6484C150.512 61.0391 149.629 61.2344 148.652 61.2344C147.668 61.2344 146.809 61.0703 146.074 60.7422C145.348 60.4141 144.742 59.9609 144.258 59.3828C143.773 58.7969 143.41 58.1172 143.168 57.3438C142.926 56.5625 142.805 55.7266 142.805 54.8359V54.4961C142.805 53.5977 142.926 52.7617 143.168 51.9883C143.41 51.207 143.773 50.5273 144.258 49.9492C144.742 49.3633 145.348 48.9062 146.074 48.5781C146.801 48.25 147.652 48.0859 148.629 48.0859C149.668 48.0859 150.578 48.2852 151.359 48.6836C152.148 49.082 152.766 49.6523 153.211 50.3945C153.664 51.1289 153.895 52 153.902 53.0078H150.727C150.719 52.5859 150.629 52.2031 150.457 51.8594C150.293 51.5156 150.051 51.2422 149.73 51.0391C149.418 50.8281 149.031 50.7227 148.57 50.7227C148.078 50.7227 147.676 50.8281 147.363 51.0391C147.051 51.2422 146.809 51.5234 146.637 51.8828C146.465 52.2344 146.344 52.6367 146.273 53.0898C146.211 53.5352 146.18 54.0039 146.18 54.4961V54.8359C146.18 55.3281 146.211 55.8008 146.273 56.2539C146.336 56.707 146.453 57.1094 146.625 57.4609C146.805 57.8125 147.051 58.0898 147.363 58.293C147.676 58.4961 148.082 58.5977 148.582 58.5977ZM159.152 43V61H155.777V43H159.152ZM158.672 54.2148H157.746C157.754 53.332 157.871 52.5195 158.098 51.7773C158.324 51.0273 158.648 50.3789 159.07 49.832C159.492 49.2773 159.996 48.8477 160.582 48.543C161.176 48.2383 161.832 48.0859 162.551 48.0859C163.176 48.0859 163.742 48.1758 164.25 48.3555C164.766 48.5273 165.207 48.8086 165.574 49.1992C165.949 49.582 166.238 50.0859 166.441 50.7109C166.645 51.3359 166.746 52.0938 166.746 52.9844V61H163.348V52.9609C163.348 52.3984 163.266 51.957 163.102 51.6367C162.945 51.3086 162.715 51.0781 162.41 50.9453C162.113 50.8047 161.746 50.7344 161.309 50.7344C160.824 50.7344 160.41 50.8242 160.066 51.0039C159.73 51.1836 159.461 51.4336 159.258 51.7539C159.055 52.0664 158.906 52.4336 158.812 52.8555C158.719 53.2773 158.672 53.7305 158.672 54.2148ZM172.875 48.3203V61H169.488V48.3203H172.875ZM169.277 45.0156C169.277 44.5234 169.449 44.1172 169.793 43.7969C170.137 43.4766 170.598 43.3164 171.176 43.3164C171.746 43.3164 172.203 43.4766 172.547 43.7969C172.898 44.1172 173.074 44.5234 173.074 45.0156C173.074 45.5078 172.898 45.9141 172.547 46.2344C172.203 46.5547 171.746 46.7148 171.176 46.7148C170.598 46.7148 170.137 46.5547 169.793 46.2344C169.449 45.9141 169.277 45.5078 169.277 45.0156ZM181.875 48.3203V50.7109H174.492V48.3203H181.875ZM176.32 45.1914H179.695V57.1797C179.695 57.5469 179.742 57.8281 179.836 58.0234C179.938 58.2188 180.086 58.3555 180.281 58.4336C180.477 58.5039 180.723 58.5391 181.02 58.5391C181.23 58.5391 181.418 58.5312 181.582 58.5156C181.754 58.4922 181.898 58.4688 182.016 58.4453L182.027 60.9297C181.738 61.0234 181.426 61.0977 181.09 61.1523C180.754 61.207 180.383 61.2344 179.977 61.2344C179.234 61.2344 178.586 61.1133 178.031 60.8711C177.484 60.6211 177.062 60.2227 176.766 59.6758C176.469 59.1289 176.32 58.4102 176.32 57.5195V45.1914ZM189.633 61.2344C188.648 61.2344 187.766 61.0781 186.984 60.7656C186.203 60.4453 185.539 60.0039 184.992 59.4414C184.453 58.8789 184.039 58.2266 183.75 57.4844C183.461 56.7344 183.316 55.9375 183.316 55.0938V54.625C183.316 53.6641 183.453 52.7852 183.727 51.9883C184 51.1914 184.391 50.5 184.898 49.9141C185.414 49.3281 186.039 48.8789 186.773 48.5664C187.508 48.2461 188.336 48.0859 189.258 48.0859C190.156 48.0859 190.953 48.2344 191.648 48.5312C192.344 48.8281 192.926 49.25 193.395 49.7969C193.871 50.3438 194.23 51 194.473 51.7656C194.715 52.5234 194.836 53.3672 194.836 54.2969V55.7031H184.758V53.4531H191.52V53.1953C191.52 52.7266 191.434 52.3086 191.262 51.9414C191.098 51.5664 190.848 51.2695 190.512 51.0508C190.176 50.832 189.746 50.7227 189.223 50.7227C188.777 50.7227 188.395 50.8203 188.074 51.0156C187.754 51.2109 187.492 51.4844 187.289 51.8359C187.094 52.1875 186.945 52.6016 186.844 53.0781C186.75 53.5469 186.703 54.0625 186.703 54.625V55.0938C186.703 55.6016 186.773 56.0703 186.914 56.5C187.062 56.9297 187.27 57.3008 187.535 57.6133C187.809 57.9258 188.137 58.168 188.52 58.3398C188.91 58.5117 189.352 58.5977 189.844 58.5977C190.453 58.5977 191.02 58.4805 191.543 58.2461C192.074 58.0039 192.531 57.6406 192.914 57.1562L194.555 58.9375C194.289 59.3203 193.926 59.6875 193.465 60.0391C193.012 60.3906 192.465 60.6797 191.824 60.9062C191.184 61.125 190.453 61.2344 189.633 61.2344ZM199.477 48.3203L201.574 52.1758L203.73 48.3203H207.328L203.742 54.5195L207.492 61H203.883L201.598 56.9219L199.312 61H195.703L199.453 54.5195L195.867 48.3203H199.477ZM215.18 48.3203V50.7109H207.797V48.3203H215.18ZM209.625 45.1914H213V57.1797C213 57.5469 213.047 57.8281 213.141 58.0234C213.242 58.2188 213.391 58.3555 213.586 58.4336C213.781 58.5039 214.027 58.5391 214.324 58.5391C214.535 58.5391 214.723 58.5312 214.887 58.5156C215.059 58.4922 215.203 58.4688 215.32 58.4453L215.332 60.9297C215.043 61.0234 214.73 61.0977 214.395 61.1523C214.059 61.207 213.688 61.2344 213.281 61.2344C212.539 61.2344 211.891 61.1133 211.336 60.8711C210.789 60.6211 210.367 60.2227 210.07 59.6758C209.773 59.1289 209.625 58.4102 209.625 57.5195V45.1914Z" fill="#888888"/>
<path d="M106.688 119H99.1172L99.1641 112.672H106.688C108.25 112.672 109.57 112.297 110.648 111.547C111.742 110.797 112.57 109.68 113.133 108.195C113.711 106.695 114 104.852 114 102.664V101.188C114 99.5469 113.836 98.1094 113.508 96.875C113.195 95.625 112.727 94.5859 112.102 93.7578C111.477 92.9141 110.695 92.2812 109.758 91.8594C108.836 91.4375 107.773 91.2266 106.57 91.2266H98.9766V84.875H106.57C108.883 84.875 111 85.2734 112.922 86.0703C114.859 86.8516 116.531 87.9766 117.938 89.4453C119.359 90.8984 120.453 92.625 121.219 94.625C122 96.6094 122.391 98.8125 122.391 101.234V102.664C122.391 105.07 122 107.273 121.219 109.273C120.453 111.273 119.367 113 117.961 114.453C116.555 115.906 114.891 117.031 112.969 117.828C111.062 118.609 108.969 119 106.688 119ZM103.828 84.875V119H95.6016V84.875H103.828ZM138.586 119.469C136.523 119.469 134.68 119.148 133.055 118.508C131.43 117.852 130.055 116.953 128.93 115.812C127.82 114.672 126.969 113.359 126.375 111.875C125.797 110.391 125.508 108.82 125.508 107.164V106.273C125.508 104.414 125.766 102.695 126.281 101.117C126.797 99.5234 127.562 98.1328 128.578 96.9453C129.594 95.7578 130.867 94.8359 132.398 94.1797C133.93 93.5078 135.711 93.1719 137.742 93.1719C139.539 93.1719 141.148 93.4609 142.57 94.0391C143.992 94.6172 145.195 95.4453 146.18 96.5234C147.18 97.6016 147.938 98.9062 148.453 100.438C148.984 101.969 149.25 103.688 149.25 105.594V108.805H128.531V103.859H141.539V103.25C141.555 102.406 141.406 101.688 141.094 101.094C140.797 100.5 140.359 100.047 139.781 99.7344C139.203 99.4219 138.5 99.2656 137.672 99.2656C136.812 99.2656 136.102 99.4531 135.539 99.8281C134.992 100.203 134.562 100.719 134.25 101.375C133.953 102.016 133.742 102.758 133.617 103.602C133.492 104.445 133.43 105.336 133.43 106.273V107.164C133.43 108.102 133.555 108.953 133.805 109.719C134.07 110.484 134.445 111.141 134.93 111.688C135.43 112.219 136.023 112.633 136.711 112.93C137.414 113.227 138.211 113.375 139.102 113.375C140.18 113.375 141.242 113.172 142.289 112.766C143.336 112.359 144.234 111.688 144.984 110.75L148.57 115.016C148.055 115.75 147.32 116.461 146.367 117.148C145.43 117.836 144.305 118.398 142.992 118.836C141.68 119.258 140.211 119.469 138.586 119.469ZM160.43 99.0078V119H152.531V93.6406H159.938L160.43 99.0078ZM159.469 105.453L157.664 105.5C157.664 103.719 157.875 102.078 158.297 100.578C158.719 99.0781 159.344 97.7734 160.172 96.6641C161 95.5547 162.016 94.6953 163.219 94.0859C164.438 93.4766 165.844 93.1719 167.438 93.1719C168.547 93.1719 169.555 93.3438 170.461 93.6875C171.367 94.0156 172.148 94.5391 172.805 95.2578C173.461 95.9609 173.961 96.8828 174.305 98.0234C174.664 99.1484 174.844 100.5 174.844 102.078V119H166.945V103.086C166.945 102.008 166.82 101.195 166.57 100.648C166.336 100.102 165.992 99.7344 165.539 99.5469C165.086 99.3594 164.531 99.2656 163.875 99.2656C163.188 99.2656 162.57 99.4219 162.023 99.7344C161.477 100.047 161.008 100.484 160.617 101.047C160.242 101.594 159.953 102.242 159.75 102.992C159.562 103.742 159.469 104.562 159.469 105.453ZM173.953 105.453L171.75 105.5C171.75 103.719 171.945 102.078 172.336 100.578C172.742 99.0781 173.344 97.7734 174.141 96.6641C174.953 95.5547 175.961 94.6953 177.164 94.0859C178.367 93.4766 179.766 93.1719 181.359 93.1719C182.516 93.1719 183.578 93.3438 184.547 93.6875C185.516 94.0312 186.352 94.5859 187.055 95.3516C187.758 96.1172 188.305 97.1328 188.695 98.3984C189.086 99.6484 189.281 101.195 189.281 103.039V119H181.359V103.039C181.359 101.992 181.234 101.203 180.984 100.672C180.75 100.125 180.406 99.7578 179.953 99.5703C179.5 99.3672 178.961 99.2656 178.336 99.2656C177.586 99.2656 176.938 99.4219 176.391 99.7344C175.844 100.047 175.383 100.484 175.008 101.047C174.648 101.594 174.383 102.242 174.211 102.992C174.039 103.742 173.953 104.562 173.953 105.453ZM192.82 106.578V106.086C192.82 104.227 193.086 102.516 193.617 100.953C194.148 99.375 194.93 98.0078 195.961 96.8516C196.992 95.6953 198.266 94.7969 199.781 94.1562C201.297 93.5 203.047 93.1719 205.031 93.1719C207.031 93.1719 208.789 93.5 210.305 94.1562C211.836 94.7969 213.117 95.6953 214.148 96.8516C215.18 98.0078 215.961 99.375 216.492 100.953C217.023 102.516 217.289 104.227 217.289 106.086V106.578C217.289 108.422 217.023 110.133 216.492 111.711C215.961 113.273 215.18 114.641 214.148 115.812C213.117 116.969 211.844 117.867 210.328 118.508C208.812 119.148 207.062 119.469 205.078 119.469C203.094 119.469 201.336 119.148 199.805 118.508C198.273 117.867 196.992 116.969 195.961 115.812C194.93 114.641 194.148 113.273 193.617 111.711C193.086 110.133 192.82 108.422 192.82 106.578ZM200.719 106.086V106.578C200.719 107.531 200.789 108.422 200.93 109.25C201.07 110.078 201.305 110.805 201.633 111.43C201.961 112.039 202.406 112.516 202.969 112.859C203.531 113.203 204.234 113.375 205.078 113.375C205.906 113.375 206.594 113.203 207.141 112.859C207.703 112.516 208.148 112.039 208.477 111.43C208.805 110.805 209.039 110.078 209.18 109.25C209.32 108.422 209.391 107.531 209.391 106.578V106.086C209.391 105.164 209.32 104.297 209.18 103.484C209.039 102.656 208.805 101.93 208.477 101.305C208.148 100.664 207.703 100.164 207.141 99.8047C206.578 99.4453 205.875 99.2656 205.031 99.2656C204.203 99.2656 203.508 99.4453 202.945 99.8047C202.398 100.164 201.961 100.664 201.633 101.305C201.305 101.93 201.07 102.656 200.93 103.484C200.789 104.297 200.719 105.164 200.719 106.086Z" fill="black"/>
<path d="M1134 0H1348C1356.28 0 1363 6.71573 1363 15V148C1363 156.284 1356.28 163 1348 163H1134V0Z" fill="#10212F"/>
<path d="M1280.07 47.5H1216.93L1214.5 49.9286V113.071L1216.93 115.5H1280.07L1282.5 113.071V49.9286L1280.07 47.5ZM1277.64 110.643H1233.93V100.929H1245.1C1246.56 103.843 1249.96 105.786 1253.36 105.786C1258.7 105.786 1263.07 101.414 1263.07 96.0714C1263.07 90.7286 1258.7 86.3571 1253.36 86.3571C1248.01 86.3571 1243.64 90.7286 1243.64 96.0714H1229.07V110.643H1219.36V52.3571H1229.07V63.5286C1226.16 64.9857 1224.21 68.3857 1224.21 71.7857C1224.21 77.1286 1228.59 81.5 1233.93 81.5C1239.27 81.5 1243.64 77.1286 1243.64 71.7857H1253.36C1253.36 77.1286 1257.73 81.5 1263.07 81.5C1268.41 81.5 1272.79 77.1286 1272.79 71.7857C1272.79 66.4429 1268.41 62.0714 1263.07 62.0714C1259.67 62.0714 1256.27 64.0143 1254.81 66.9286H1242.19C1240.73 64.0143 1237.33 62.0714 1233.93 62.0714V52.3571H1277.64V110.643ZM1248.5 96.0714C1248.5 93.1571 1250.44 91.2143 1253.36 91.2143C1256.27 91.2143 1258.21 93.1571 1258.21 96.0714C1258.21 98.9857 1256.27 100.929 1253.36 100.929C1250.44 100.929 1248.5 98.9857 1248.5 96.0714ZM1233.93 66.9286C1236.84 66.9286 1238.79 68.8714 1238.79 71.7857C1238.79 74.7 1236.84 76.6429 1233.93 76.6429C1231.01 76.6429 1229.07 74.7 1229.07 71.7857C1229.07 68.8714 1231.01 66.9286 1233.93 66.9286ZM1263.07 66.9286C1265.99 66.9286 1267.93 68.8714 1267.93 71.7857C1267.93 74.7 1265.99 76.6429 1263.07 76.6429C1260.16 76.6429 1258.21 74.7 1258.21 71.7857C1258.21 68.8714 1260.16 66.9286 1263.07 66.9286Z" fill="white"/>
</svg>
